<?xml version="1.0" encoding="UTF-8" standalone="no"?>
<svg
   xmlns:dc="http://purl.org/dc/elements/1.1/"
   xmlns:cc="http://creativecommons.org/ns#"
   xmlns:rdf="http://www.w3.org/1999/02/22-rdf-syntax-ns#"
   xmlns:svg="http://www.w3.org/2000/svg"
   xmlns="http://www.w3.org/2000/svg"
   xmlns:sodipodi="http://sodipodi.sourceforge.net/DTD/sodipodi-0.dtd"
   xmlns:inkscape="http://www.inkscape.org/namespaces/inkscape"
   width="39px"
   height="37px"
   viewBox="0 0 39 37"
   version="1.1"
   id="svg12"
   sodipodi:docname="heart.svg"
   inkscape:export-filename="/home/tastytune/Desktop/DO/videollama.me/img/heart.png"
   inkscape:export-xdpi="970.51855"
   inkscape:export-ydpi="970.51855"
   inkscape:version="0.92.3 (2405546, 2018-03-11)">
  <metadata
     id="metadata18">
    <rdf:RDF>
      <cc:Work
         rdf:about="">
        <dc:format>image/svg+xml</dc:format>
        <dc:type
           rdf:resource="http://purl.org/dc/dcmitype/StillImage" />
      </cc:Work>
    </rdf:RDF>
  </metadata>
  <defs
     id="defs16" />
  <sodipodi:namedview
     pagecolor="#ffffff"
     bordercolor="#666666"
     borderopacity="1"
     objecttolerance="10"
     gridtolerance="10"
     guidetolerance="10"
     inkscape:pageopacity="0"
     inkscape:pageshadow="2"
     inkscape:window-width="1920"
     inkscape:window-height="996"
     id="namedview14"
     showgrid="false"
     inkscape:zoom="6.3783784"
     inkscape:cx="19.5"
     inkscape:cy="18.5"
     inkscape:window-x="0"
     inkscape:window-y="28"
     inkscape:window-maximized="1"
     inkscape:current-layer="svg12" />
  <!-- Generator: Sketch 55.2 (78181) - https://sketchapp.com -->
  <title
     id="title2">heart</title>
  <desc
     id="desc4">Created with Sketch.</desc>
  <g
     id="Page-1"
     stroke="none"
     stroke-width="1"
     fill="none"
     fill-rule="evenodd">
    <g
       id="heart"
       transform="translate(0.000000, 1.000000)">
      <path
         d="M23.6,6 C20.2,6 17.3,8.7 16,11.6 C14.7,8.7 11.8,6 8.4,6 C3.8,6 0,9.8 0,14.4 C0,23.8 9.5,26.3 16,35.6 C22.1,26.3 32,23.5 32,14.4 C32,9.8 28.2,6 23.6,6 Z"
         id="Path"
         fill="#00bc96"
         fill-rule="nonzero" />
      <path
         d="M24,4.08827228 C27.2360398,3.76654413 29.8049473,4.32427384 31.7067225,5.76146141 C33.6084978,7.19864897 34.7062569,9.9448285 35,14"
         id="Path-2"
         stroke="#979797"
         stroke-width="2" />
      <path
         d="M27,0.0882722798 C30.2360398,-0.233455866 32.8049473,0.324273843 34.7067225,1.76146141 C36.6084978,3.19864897 37.7062569,5.9448285 38,10"
         id="path8"
         stroke="#979797"
         stroke-width="2" />
    </g>
  </g>
</svg>
